<mxfile host="app.diagrams.net" modified="2023-04-27T18:38:10.978Z" agent="Mozilla/5.0 (Macintosh; Intel Mac OS X 10.15; rv:109.0) Gecko/20100101 Firefox/112.0" version="21.2.3" etag="3pp7l_eVSbJPoT5a2X3E" type="github">
  <diagram name="Page-1" id="3-NibJbAZrLJMCup1Ugo">
    <mxGraphModel>
      <root>
        <mxCell id="0" />
        <mxCell id="1" parent="0" />
      </root>
    </mxGraphModel>
  </diagram>
</mxfile>
